# Blender 4.2.1 LTS
# www.blender.org
mtllib sten.mtl
o Icosphere.001
v 1.911284 -0.278445 0.287838
v 1.369428 -0.278074 0.461634
v 1.071809 -0.277200 0.000000
v 1.351214 -0.278550 -0.491275
v 1.927717 -0.278346 -0.301434
v 1.661108 0.229774 0.438221
v 1.141620 0.233250 0.273609
v 1.157218 0.223610 -0.262863
v 1.657216 0.223610 -0.425325
v 2.086522 0.310188 -0.020983
v 1.519022 0.533991 -0.000000
v 1.811518 -0.279318 0.369773
v 1.654637 -0.278639 0.413576
v 1.504048 -0.278341 0.445027
v 1.958438 -0.278797 -0.158417
v 1.990394 -0.279382 -0.000842
v 1.977630 -0.279361 0.162146
v 1.260673 -0.278925 0.380457
v 1.172873 -0.278274 0.252320
v 1.103256 -0.277915 0.119552
v 1.089892 -0.278207 -0.123591
v 1.157634 -0.278743 -0.259019
v 1.259708 -0.278821 -0.388288
v 1.505321 -0.278993 -0.480591
v 1.666019 -0.279475 -0.464708
v 1.806973 -0.278668 -0.366416
v 2.079751 0.168426 0.078998
v 2.046149 0.001334 0.168551
v 1.988081 -0.137948 0.240437
v 1.971086 -0.132391 -0.233608
v 2.023200 0.000306 -0.164234
v 2.052892 0.158659 -0.087409
v 1.603726 0.134607 0.515097
v 1.517908 -0.000229 0.551607
v 1.421445 -0.154815 0.561567
v 1.889014 -0.136755 0.368392
v 1.830760 0.000156 0.430034
v 1.739757 0.127455 0.437894
v 1.088432 0.125620 0.221556
v 1.008610 -0.000000 0.165840
v 1.039513 -0.126105 0.074433
v 1.262283 -0.150087 0.506596
v 1.221902 -0.001619 0.409420
v 1.153014 0.133709 0.363176
v 1.175442 0.125576 -0.340858
v 1.218687 -0.000004 -0.413379
v 1.296261 -0.128490 -0.441263
v 1.040709 -0.125575 -0.073809
v 1.043493 0.000000 -0.154506
v 1.088673 0.125575 -0.221429
v 1.737025 0.125576 -0.432094
v 1.824249 -0.000011 -0.420450
v 1.898498 -0.137014 -0.374426
v 1.436748 -0.133106 -0.503020
v 1.519022 0.000000 -0.533245
v 1.596629 0.125576 -0.477711
v 2.041125 0.330403 0.130589
v 1.895112 0.288212 0.270939
v 1.762745 0.253059 0.361062
v 1.535242 0.270373 0.465374
v 1.370056 0.293792 0.451434
v 1.253051 0.251151 0.340856
v 1.105663 0.255473 0.150770
v 1.079005 0.272504 -0.000590
v 1.082084 0.270046 -0.158618
v 1.253051 0.251151 -0.340856
v 1.379027 0.279988 -0.430850
v 1.533841 0.251151 -0.432092
v 1.761007 0.251151 -0.358282
v 1.885688 0.283629 -0.259497
v 2.033000 0.330807 -0.153106
v 1.563451 0.553374 0.136743
v 1.610339 0.478983 0.280989
v 1.646031 0.356553 0.383621
v 2.013174 0.429912 -0.021044
v 1.834479 0.485951 -0.010232
v 1.655103 0.524024 -0.000000
v 1.412778 0.505911 0.077190
v 1.290000 0.458777 0.166392
v 1.210785 0.330900 0.223944
v 1.412624 0.500806 -0.078198
v 1.280339 0.488754 -0.179786
v 1.214248 0.328759 -0.221428
v 1.557825 0.484501 -0.119426
v 1.600249 0.425327 -0.249998
v 1.635432 0.328760 -0.358282
v 1.708500 0.456511 -0.135234
v 1.920633 0.443384 -0.161684
v 1.748036 0.367698 -0.265415
v 1.445569 0.474601 -0.226003
v 1.492627 0.361806 -0.344092
v 1.330777 0.376886 -0.304461
v 1.295417 0.447215 0.000000
v 1.156680 0.391128 -0.087467
v 1.183613 0.361805 0.081229
v 1.442159 0.496337 0.236526
v 1.333500 0.371511 0.300045
v 1.491966 0.408242 0.375593
v 1.723439 0.504069 0.148518
v 1.766544 0.400550 0.289575
v 1.888175 0.410330 0.133408
v 1.964582 0.146293 -0.219285
v 1.927232 0.000222 -0.296955
v 1.854432 0.138199 -0.344095
v 1.449073 0.140440 -0.481024
v 1.342476 0.002575 -0.533676
v 1.273099 0.154970 -0.466401
v 1.030453 0.142496 -0.084141
v 1.019022 0.000000 0.000000
v 1.031491 0.142192 0.083499
v 1.278557 0.146804 0.456192
v 1.362297 -0.001719 0.481141
v 1.442503 0.147937 0.514923
v 1.856765 0.139699 0.346580
v 1.979708 0.003201 0.335028
v 1.984071 0.156939 0.227963
v 1.673530 -0.000000 -0.475528
v 1.759106 -0.148899 -0.458314
v 1.588396 -0.139056 -0.478286
v 1.088080 0.000559 -0.311972
v 1.131361 -0.162069 -0.394856
v 1.085204 -0.139252 -0.213785
v 1.097737 -0.000295 0.306159
v 1.049635 -0.155278 0.232739
v 1.126162 -0.165488 0.404989
v 1.684292 0.001739 0.509833
v 1.595992 -0.167185 0.543874
v 1.765716 -0.157739 0.473459
v 2.090354 -0.000025 -0.001626
v 2.005910 -0.143338 0.082099
v 2.012826 -0.145852 -0.084561
v 1.503665 -0.696982 0.445172
v 1.369045 -0.696715 0.461778
v 1.977247 -0.698001 0.162290
v 1.910901 -0.697086 0.287982
v 1.102873 -0.696556 0.119696
v 1.071425 -0.695840 0.000144
v 1.259325 -0.697461 -0.388144
v 1.350830 -0.697190 -0.491131
v 1.806590 -0.697308 -0.366272
v 1.927334 -0.696986 -0.301290
v 1.811135 -0.697958 0.369917
v 1.654254 -0.697279 0.413720
v 1.958055 -0.697437 -0.158273
v 1.990010 -0.698023 -0.000698
v 1.260290 -0.697565 0.380601
v 1.172490 -0.696914 0.252464
v 1.089509 -0.696848 -0.123447
v 1.157251 -0.697384 -0.258875
v 1.504938 -0.697634 -0.480447
v 1.665636 -0.698116 -0.464564
vn 0.8402 -0.3089 0.4457
vn 0.0917 -0.6502 0.7542
vn -0.9185 -0.3144 0.2397
vn -0.7465 -0.0523 -0.6634
vn 0.4471 -0.3358 -0.8291
vn 0.7705 -0.2192 0.5986
vn -0.2917 -0.5251 0.7995
vn -0.9787 -0.2049 -0.0086
vn -0.3930 0.1580 -0.9059
vn 0.8884 -0.0520 -0.4562
vn 0.4975 0.3924 0.7737
vn -0.4694 0.6412 0.6071
vn -0.5450 0.5462 -0.6361
vn 0.1685 0.5545 -0.8149
vn 0.8245 0.5050 -0.2552
vn 0.0681 0.9293 -0.3630
vn 0.1705 0.9069 -0.3854
vn 0.2921 0.9510 -0.1011
vn 0.1262 0.9066 -0.4028
vn 0.1314 0.9183 -0.3735
vn 0.0279 0.9663 -0.2557
vn -0.0198 0.8231 -0.5676
vn 0.2736 0.8312 -0.4840
vn 0.2342 0.7621 -0.6036
vn 0.6692 0.6391 -0.3791
vn 0.4532 0.3913 -0.8010
vn 0.3089 0.4466 -0.8397
vn 0.3957 0.5989 -0.6963
vn 0.3728 0.6033 -0.7050
vn 0.3427 0.5545 -0.7583
vn -0.0055 0.9232 -0.3843
vn 0.2383 0.9114 -0.3356
vn 0.1121 0.7594 -0.6409
vn 0.0651 0.9849 -0.1601
vn 0.0379 0.9854 -0.1662
vn 0.1349 0.7428 -0.6558
vn -0.1087 0.6969 -0.7089
vn -0.1325 0.7105 -0.6911
vn -0.6350 0.4294 -0.6422
vn 0.0711 0.6369 -0.7676
vn 0.1139 0.6440 -0.7565
vn -0.0809 0.7758 -0.6257
vn -0.5692 0.5331 -0.6260
vn -0.6237 0.5471 -0.5582
vn -0.6153 0.5545 -0.5603
vn -0.2766 0.9605 -0.0313
vn -0.2679 0.9335 0.2382
vn -0.7337 0.4382 -0.5193
vn -0.4317 0.9015 -0.0292
vn -0.4053 0.9110 -0.0765
vn -0.4880 0.8405 0.2351
vn -0.4835 0.8462 0.2243
vn -0.6388 0.7658 -0.0740
vn -0.7582 0.5923 0.2726
vn -0.5421 0.6482 -0.5347
vn -0.8446 0.5349 -0.0248
vn -0.7293 0.6449 0.2285
vn -0.7224 0.6614 0.2017
vn -0.6798 0.6792 0.2765
vn -0.6891 0.6505 0.3194
vn -0.2846 0.9577 -0.0433
vn -0.2856 0.9520 0.1099
vn -0.5551 0.6021 0.5738
vn -0.3408 0.9326 0.1189
vn -0.0321 0.8840 0.4663
vn -0.4386 0.6805 0.5870
vn -0.4379 0.6803 0.5878
vn -0.0592 0.8336 0.5492
vn 0.1844 0.6624 0.7261
vn -0.5599 0.5761 0.5954
vn -0.6557 0.5956 0.4641
vn -0.4126 0.7661 0.4929
vn 0.0070 0.5472 0.8370
vn 0.1499 0.5721 0.8063
vn 0.3161 0.4067 0.8571
vn 0.0721 0.9840 -0.1629
vn 0.2468 0.8916 0.3796
vn 0.2950 0.6629 0.6882
vn 0.2950 0.9555 -0.0074
vn 0.2094 0.9772 0.0349
vn 0.3749 0.7983 0.4713
vn 0.4776 0.7715 0.4203
vn 0.4960 0.8310 0.2521
vn 0.2993 0.8859 0.3545
vn 0.4829 0.3718 0.7928
vn 0.4494 0.3802 0.8084
vn 0.6065 0.6095 0.5106
vn 0.3778 0.7017 0.6040
vn 0.4219 0.7917 0.4418
vn 0.8383 0.5137 0.1826
vn 0.9241 -0.0384 -0.3803
vn 0.8200 0.1180 -0.5601
vn 0.8103 -0.0119 -0.5859
vn 0.8305 -0.1123 -0.5456
vn 0.5654 0.0846 -0.8204
vn 0.8059 0.1038 -0.5828
vn 0.7345 0.1625 -0.6588
vn 0.7234 0.2244 -0.6530
vn 0.5283 0.3392 -0.7783
vn 0.8855 0.0736 -0.4588
vn 0.7528 0.1970 -0.6281
vn 0.7549 0.1831 -0.6298
vn 0.5489 0.3092 -0.7766
vn 0.5379 0.3485 -0.7676
vn 0.4206 0.3987 -0.8149
vn 0.1387 0.3987 -0.9065
vn 0.0584 0.3734 -0.9258
vn -0.0008 -0.2209 -0.9753
vn 0.0577 0.3663 -0.9287
vn 0.0604 0.3644 -0.9293
vn 0.0074 0.3518 -0.9361
vn -0.0447 0.3864 -0.9213
vn -0.0528 0.3143 -0.9479
vn -0.5446 0.6215 -0.5631
vn -0.3729 -0.4433 -0.8151
vn -0.6713 -0.2542 -0.6962
vn -0.6969 -0.0007 -0.7172
vn -0.7954 0.0735 -0.6016
vn -0.7489 0.4629 -0.4742
vn -0.6451 0.3987 -0.6519
vn -0.7323 0.2432 -0.6361
vn -0.9095 0.1142 -0.3998
vn -0.9846 -0.0784 -0.1560
vn -0.9065 0.1329 -0.4008
vn -0.9314 0.3631 -0.0238
vn -0.9876 -0.0131 -0.1564
vn -0.9965 0.0837 0.0063
vn -0.9381 0.3462 0.0064
vn -0.8701 0.4487 0.2037
vn -0.9862 -0.1653 -0.0085
vn -0.9788 -0.1953 -0.0615
vn -0.9904 0.1234 -0.0622
vn -0.8452 0.3631 0.3922
vn -0.8586 0.3285 0.3936
vn -0.9022 0.2925 0.3170
vn -0.4947 0.5493 0.6734
vn -0.5933 -0.0271 0.8045
vn -0.4132 0.4174 0.8094
vn -0.5271 0.5689 0.6313
vn -0.6944 0.4504 0.5611
vn -0.4524 -0.1063 0.8854
vn -0.3369 -0.0319 0.9410
vn -0.3293 0.2346 0.9146
vn -0.0225 0.3896 0.9207
vn -0.2962 0.3520 0.8879
vn -0.3956 0.3027 0.8671
vn -0.4126 0.0155 0.9108
vn 0.0196 0.2497 0.9681
vn 0.0285 0.3564 0.9339
vn 0.3277 0.4662 0.8217
vn 0.5013 0.3829 0.7759
vn 0.5536 0.3490 0.7561
vn 0.5340 -0.1476 0.8325
vn 0.5502 0.3601 0.7534
vn 0.4829 0.2952 0.8244
vn 0.4925 0.3773 0.7843
vn 0.5721 0.4577 0.6806
vn 0.6526 0.2033 0.7299
vn 0.6486 0.1990 0.7346
vn 0.7413 -0.3428 0.5771
vn 0.9109 -0.1910 0.3657
vn 0.9060 0.2243 0.3590
vn 0.8305 0.1240 0.5430
vn 0.8401 0.0278 0.5417
vn 0.9533 0.1424 0.2665
vn 0.2945 0.3024 -0.9065
vn 0.3394 0.1496 -0.9287
vn 0.5161 -0.0080 -0.8565
vn 0.3045 0.1702 -0.9372
vn 0.3433 0.1942 -0.9189
vn 0.3419 0.0883 -0.9356
vn 0.1132 -0.0496 -0.9923
vn 0.3434 -0.1920 -0.9193
vn 0.1419 -0.3018 -0.9428
vn 0.5022 -0.3687 -0.7822
vn 0.5380 -0.3459 -0.7687
vn 0.1143 -0.0328 -0.9929
vn 0.0981 -0.0419 -0.9943
vn 0.1575 -0.0773 -0.9845
vn 0.0683 -0.1202 -0.9904
vn -0.7711 0.3024 -0.5603
vn -0.5950 0.2384 -0.7676
vn -0.2783 0.0403 -0.9597
vn -0.7433 0.3947 -0.5401
vn -0.9434 0.1974 -0.2664
vn -0.5957 0.2332 -0.7686
vn -0.9635 -0.1403 -0.2279
vn -0.9481 -0.1695 -0.2691
vn -0.9449 -0.1619 -0.2845
vn -0.2068 -0.2801 -0.9374
vn -0.5842 -0.6681 -0.4609
vn -0.8958 -0.4077 -0.1770
vn -0.8523 -0.3047 -0.4251
vn -0.9372 -0.2116 -0.2772
vn -0.9550 -0.2628 -0.1376
vn -0.8864 0.2494 0.3900
vn -0.8086 0.2858 0.5142
vn -0.9684 -0.2489 0.0160
vn -0.8957 0.2005 0.3970
vn -0.6385 -0.0630 0.7670
vn -0.8441 0.0080 0.5362
vn -0.9083 0.0883 0.4088
vn -0.6012 0.3316 0.7271
vn -0.5891 0.3242 0.7401
vn -0.9205 -0.3904 -0.0131
vn -0.6873 -0.6316 0.3587
vn -0.7010 -0.6591 0.2724
vn -0.5559 -0.7408 0.3772
vn -0.4154 -0.6337 0.6526
vn -0.4686 -0.6150 0.6342
vn 0.4744 0.3621 0.8024
vn 0.2409 0.1079 0.9645
vn 0.1009 0.0011 0.9949
vn 0.4867 0.2621 0.8333
vn 0.4619 0.2782 0.8422
vn 0.2422 0.0684 0.9678
vn 0.3839 -0.0146 0.9233
vn 0.4783 0.0442 0.8771
vn 0.6534 -0.0617 0.7545
vn 0.0267 -0.6765 0.7360
vn 0.1405 -0.7203 0.6793
vn 0.3240 -0.6419 0.6949
vn 0.2157 -0.5853 0.7816
vn 0.6424 -0.3426 0.6855
vn 0.6028 -0.3206 0.7306
vn 0.9772 -0.1516 -0.1488
vn 0.9660 -0.0595 0.2514
vn 0.9366 -0.3303 0.1167
vn 0.9761 0.1408 -0.1658
vn 0.9242 0.0119 -0.3817
vn 0.8913 -0.3881 0.2346
vn 0.8717 -0.4882 0.0435
vn 0.8913 -0.2642 -0.3686
vn 0.9341 -0.2197 -0.2814
vn 0.9839 -0.1366 0.1154
vn 0.9842 -0.1593 0.0771
vn 0.9893 -0.1391 0.0431
vn 0.9411 -0.2784 -0.1919
vn 0.9328 -0.2252 -0.2816
vn 0.9599 -0.1891 -0.2068
vn 0.9800 -0.0010 -0.1988
vn -0.0009 -1.0000 0.0003
vn 0.0692 -0.0004 -0.9976
vn 0.1224 0.0002 0.9925
vn 0.9969 -0.0009 0.0781
vn 0.0984 -0.0004 -0.9952
vn 0.8844 -0.0006 0.4668
vn -0.5982 0.0008 0.8014
vn 0.5720 -0.0008 -0.8203
vn -0.9671 0.0010 0.2544
vn -0.8249 0.0009 0.5652
vn 0.6347 -0.0003 0.7728
vn -0.7475 0.0005 -0.6642
vn -0.8856 0.0010 0.4644
vn 0.2689 0.0001 0.9632
vn 0.4739 -0.0007 -0.8806
vn -0.9895 0.0009 -0.1448
vn 0.2044 0.0001 0.9789
vn -0.8944 0.0007 -0.4474
vn 0.9777 -0.0010 -0.2100
vn -0.7848 0.0005 -0.6197
vt 0.272728 0.157461
vt 0.318182 0.157461
vt 0.295455 0.196826
vt 0.090910 0.157461
vt 0.136364 0.157461
vt 0.113637 0.196826
vt 0.818182 0.157461
vt 0.863636 0.157461
vt 0.840909 0.196826
vt 0.636364 0.157461
vt 0.681818 0.157461
vt 0.659091 0.196826
vt 0.454546 0.157461
vt 0.500000 0.157461
vt 0.477273 0.196826
vt 0.250001 0.196826
vt 0.068182 0.196826
vt 0.795455 0.196826
vt 0.613637 0.196826
vt 0.431819 0.196826
vt 0.181819 0.314921
vt 0.227273 0.314921
vt 0.204546 0.354286
vt 0.000000 0.314921
vt 0.045455 0.314921
vt 0.022727 0.354286
vt 0.727273 0.314921
vt 0.772727 0.314921
vt 0.750000 0.354286
vt 0.545455 0.314921
vt 0.590909 0.314921
vt 0.568182 0.354286
vt 0.363637 0.314921
vt 0.409091 0.314921
vt 0.386364 0.354286
vt 0.431819 0.433017
vt 0.477273 0.433017
vt 0.454546 0.472382
vt 0.409091 0.393651
vt 0.454546 0.393651
vt 0.431819 0.354286
vt 0.500000 0.393651
vt 0.477273 0.354286
vt 0.522728 0.354286
vt 0.454546 0.314921
vt 0.500000 0.314921
vt 0.613637 0.433017
vt 0.659091 0.433017
vt 0.636364 0.472382
vt 0.590909 0.393651
vt 0.636364 0.393651
vt 0.613637 0.354286
vt 0.681818 0.393651
vt 0.659091 0.354286
vt 0.704546 0.354286
vt 0.636364 0.314921
vt 0.681818 0.314921
vt 0.795455 0.433017
vt 0.840909 0.433017
vt 0.818182 0.472382
vt 0.772727 0.393651
vt 0.818182 0.393651
vt 0.795455 0.354286
vt 0.863636 0.393651
vt 0.840909 0.354286
vt 0.886364 0.354286
vt 0.818182 0.314921
vt 0.863636 0.314921
vt 0.909091 0.314921
vt 0.068182 0.433017
vt 0.113637 0.433017
vt 0.090910 0.472382
vt 0.045455 0.393651
vt 0.090910 0.393651
vt 0.068182 0.354286
vt 0.136365 0.393651
vt 0.113637 0.354286
vt 0.159092 0.354286
vt 0.090909 0.314921
vt 0.136364 0.314921
vt 0.250001 0.433017
vt 0.295455 0.433017
vt 0.272728 0.472382
vt 0.227273 0.393651
vt 0.272728 0.393651
vt 0.250001 0.354286
vt 0.318182 0.393651
vt 0.295455 0.354286
vt 0.340910 0.354286
vt 0.272728 0.314921
vt 0.318182 0.314921
vt 0.386364 0.275556
vt 0.409091 0.236191
vt 0.431819 0.275556
vt 0.454546 0.236191
vt 0.477273 0.275556
vt 0.500000 0.236191
vt 0.522728 0.275556
vt 0.568182 0.275556
vt 0.590909 0.236191
vt 0.613637 0.275556
vt 0.636364 0.236191
vt 0.659091 0.275556
vt 0.681818 0.236191
vt 0.704546 0.275556
vt 0.750000 0.275556
vt 0.772727 0.236191
vt 0.795455 0.275556
vt 0.818182 0.236191
vt 0.840909 0.275556
vt 0.863636 0.236191
vt 0.886364 0.275556
vt 0.022727 0.275556
vt 0.045455 0.236191
vt 0.068182 0.275556
vt 0.090910 0.236191
vt 0.113637 0.275556
vt 0.136364 0.236191
vt 0.159092 0.275556
vt 0.204546 0.275556
vt 0.227273 0.236191
vt 0.250001 0.275556
vt 0.272728 0.236191
vt 0.295455 0.275556
vt 0.318182 0.236191
vt 0.340910 0.275556
vt 0.545455 0.236191
vt 0.522728 0.196826
vt 0.568182 0.196826
vt 0.545455 0.157461
vt 0.590909 0.157461
vt 0.727273 0.236191
vt 0.704546 0.196826
vt 0.750000 0.196826
vt 0.727273 0.157461
vt 0.772727 0.157461
vt 0.931818 0.275556
vt 0.909091 0.236191
vt 0.886364 0.196826
vt 0.954545 0.236191
vt 0.931818 0.196826
vt 0.977273 0.196826
vt 0.909091 0.157461
vt 0.954545 0.157461
vt 1.000000 0.157461
vt 0.181819 0.236191
vt 0.159092 0.196826
vt 0.204546 0.196826
vt 0.181819 0.157461
vt 0.227274 0.157461
vt 0.363637 0.236191
vt 0.340910 0.196826
vt 0.386364 0.196826
vt 0.363637 0.157461
vt 0.409092 0.157461
s 0
usemtl Material
f 1/1/1 17/2/1 29/3/1
f 2/4/2 14/5/2 35/6/2
f 3/7/3 20/8/3 41/9/3
f 4/10/4 23/11/4 47/12/4
f 5/13/5 26/14/5 53/15/5
f 1/1/6 29/3/6 36/16/6
f 2/4/7 35/6/7 42/17/7
f 3/7/8 41/9/8 48/18/8
f 4/10/9 47/12/9 54/19/9
f 5/13/10 53/15/10 30/20/10
f 6/21/11 59/22/11 74/23/11
f 7/24/12 62/25/12 80/26/12
f 8/27/13 65/28/13 83/29/13
f 9/30/14 68/31/14 86/32/14
f 10/33/15 71/34/15 75/35/15
f 77/36/16 84/37/16 11/38/16
f 76/39/17 87/40/17 77/36/17
f 75/35/18 88/41/18 76/39/18
f 77/36/19 87/40/19 84/37/19
f 87/40/20 85/42/20 84/37/20
f 76/39/21 88/41/21 87/40/21
f 88/41/22 89/43/22 87/40/22
f 87/40/23 89/43/23 85/42/23
f 89/43/24 86/44/24 85/42/24
f 75/35/25 71/34/25 88/41/25
f 71/34/26 70/45/26 88/41/26
f 88/41/27 70/45/27 89/43/27
f 70/45/28 69/46/28 89/43/28
f 89/43/29 69/46/29 86/44/29
f 69/46/30 9/30/30 86/44/30
f 84/47/31 81/48/31 11/49/31
f 85/50/32 90/51/32 84/47/32
f 86/32/33 91/52/33 85/50/33
f 84/47/34 90/51/34 81/48/34
f 90/51/35 82/53/35 81/48/35
f 85/50/36 91/52/36 90/51/36
f 91/52/37 92/54/37 90/51/37
f 90/51/38 92/54/38 82/53/38
f 92/54/39 83/55/39 82/53/39
f 86/32/40 68/31/40 91/52/40
f 68/31/41 67/56/41 91/52/41
f 91/52/42 67/56/42 92/54/42
f 67/56/43 66/57/43 92/54/43
f 92/54/44 66/57/44 83/55/44
f 66/57/45 8/27/45 83/55/45
f 81/58/46 78/59/46 11/60/46
f 82/61/47 93/62/47 81/58/47
f 83/29/48 94/63/48 82/61/48
f 81/58/49 93/62/49 78/59/49
f 93/62/50 79/64/50 78/59/50
f 82/61/51 94/63/51 93/62/51
f 94/63/52 95/65/52 93/62/52
f 93/62/53 95/65/53 79/64/53
f 95/65/54 80/66/54 79/64/54
f 83/29/55 65/28/55 94/63/55
f 65/28/56 64/67/56 94/63/56
f 94/63/57 64/67/57 95/65/57
f 64/67/58 63/68/58 95/65/58
f 95/65/59 63/68/59 80/66/59
f 63/68/60 7/69/60 80/66/60
f 78/70/61 72/71/61 11/72/61
f 79/73/62 96/74/62 78/70/62
f 80/26/63 97/75/63 79/73/63
f 78/70/64 96/74/64 72/71/64
f 96/74/65 73/76/65 72/71/65
f 79/73/66 97/75/66 96/74/66
f 97/75/67 98/77/67 96/74/67
f 96/74/68 98/77/68 73/76/68
f 98/77/69 74/78/69 73/76/69
f 80/26/70 62/25/70 97/75/70
f 62/25/71 61/79/71 97/75/71
f 97/75/72 61/79/72 98/77/72
f 61/79/73 60/80/73 98/77/73
f 98/77/74 60/80/74 74/78/74
f 60/80/75 6/21/75 74/78/75
f 72/81/76 77/82/76 11/83/76
f 73/84/77 99/85/77 72/81/77
f 74/23/78 100/86/78 73/84/78
f 72/81/79 99/85/79 77/82/79
f 99/85/80 76/87/80 77/82/80
f 73/84/81 100/86/81 99/85/81
f 100/86/82 101/88/82 99/85/82
f 99/85/83 101/88/83 76/87/83
f 101/88/84 75/89/84 76/87/84
f 74/23/85 59/22/85 100/86/85
f 59/22/86 58/90/86 100/86/86
f 100/86/87 58/90/87 101/88/87
f 58/90/88 57/91/88 101/88/88
f 101/88/89 57/91/89 75/89/89
f 57/91/90 10/33/90 75/89/90
f 32/92/91 71/34/91 10/33/91
f 31/93/92 102/94/92 32/92/92
f 30/20/93 103/95/93 31/93/93
f 32/92/94 102/94/94 71/34/94
f 102/94/95 70/45/95 71/34/95
f 31/93/96 103/95/96 102/94/96
f 103/95/97 104/96/97 102/94/97
f 102/94/98 104/96/98 70/45/98
f 104/96/99 69/46/99 70/45/99
f 30/20/100 53/15/100 103/95/100
f 53/15/101 52/97/101 103/95/101
f 103/95/102 52/97/102 104/96/102
f 52/97/103 51/98/103 104/96/103
f 104/96/104 51/98/104 69/46/104
f 51/98/105 9/30/105 69/46/105
f 56/99/106 68/31/106 9/30/106
f 55/100/107 105/101/107 56/99/107
f 54/19/108 106/102/108 55/100/108
f 56/99/109 105/101/109 68/31/109
f 105/101/110 67/56/110 68/31/110
f 55/100/111 106/102/111 105/101/111
f 106/102/112 107/103/112 105/101/112
f 105/101/113 107/103/113 67/56/113
f 107/103/114 66/57/114 67/56/114
f 54/19/115 47/12/115 106/102/115
f 47/12/116 46/104/116 106/102/116
f 106/102/117 46/104/117 107/103/117
f 46/104/118 45/105/118 107/103/118
f 107/103/119 45/105/119 66/57/119
f 45/105/120 8/27/120 66/57/120
f 50/106/121 65/28/121 8/27/121
f 49/107/122 108/108/122 50/106/122
f 48/18/123 109/109/123 49/107/123
f 50/106/124 108/108/124 65/28/124
f 108/108/125 64/67/125 65/28/125
f 49/107/126 109/109/126 108/108/126
f 109/109/127 110/110/127 108/108/127
f 108/108/128 110/110/128 64/67/128
f 110/110/129 63/68/129 64/67/129
f 48/18/130 41/9/130 109/109/130
f 41/9/131 40/111/131 109/109/131
f 109/109/132 40/111/132 110/110/132
f 40/111/133 39/112/133 110/110/133
f 110/110/134 39/112/134 63/68/134
f 39/112/135 7/69/135 63/68/135
f 44/113/136 62/25/136 7/24/136
f 43/114/137 111/115/137 44/113/137
f 42/17/138 112/116/138 43/114/138
f 44/113/139 111/115/139 62/25/139
f 111/115/140 61/79/140 62/25/140
f 43/114/141 112/116/141 111/115/141
f 112/116/142 113/117/142 111/115/142
f 111/115/143 113/117/143 61/79/143
f 113/117/144 60/80/144 61/79/144
f 42/17/145 35/6/145 112/116/145
f 35/6/146 34/118/146 112/116/146
f 112/116/147 34/118/147 113/117/147
f 34/118/148 33/119/148 113/117/148
f 113/117/149 33/119/149 60/80/149
f 33/119/150 6/21/150 60/80/150
f 38/120/151 59/22/151 6/21/151
f 37/121/152 114/122/152 38/120/152
f 36/16/153 115/123/153 37/121/153
f 38/120/154 114/122/154 59/22/154
f 114/122/155 58/90/155 59/22/155
f 37/121/156 115/123/156 114/122/156
f 115/123/157 116/124/157 114/122/157
f 114/122/158 116/124/158 58/90/158
f 116/124/159 57/91/159 58/90/159
f 36/16/160 29/3/160 115/123/160
f 29/3/161 28/125/161 115/123/161
f 115/123/162 28/125/162 116/124/162
f 28/125/163 27/126/163 116/124/163
f 116/124/164 27/126/164 57/91/164
f 27/126/165 10/33/165 57/91/165
f 51/98/166 56/99/166 9/30/166
f 52/97/167 117/127/167 51/98/167
f 53/15/168 118/128/168 52/97/168
f 51/98/169 117/127/169 56/99/169
f 117/127/170 55/100/170 56/99/170
f 52/97/171 118/128/171 117/127/171
f 118/128/172 119/129/172 117/127/172
f 117/127/173 119/129/173 55/100/173
f 119/129/174 54/19/174 55/100/174
f 53/15/175 26/14/175 118/128/175
f 26/14/176 25/130/176 118/128/176
f 118/128/177 25/130/177 119/129/177
f 25/130/178 24/131/178 119/129/178
f 119/129/179 24/131/179 54/19/179
f 24/131/180 4/10/180 54/19/180
f 45/105/181 50/106/181 8/27/181
f 46/104/182 120/132/182 45/105/182
f 47/12/183 121/133/183 46/104/183
f 45/105/184 120/132/184 50/106/184
f 120/132/185 49/107/185 50/106/185
f 46/104/186 121/133/186 120/132/186
f 121/133/187 122/134/187 120/132/187
f 120/132/188 122/134/188 49/107/188
f 122/134/189 48/18/189 49/107/189
f 47/12/190 23/11/190 121/133/190
f 23/11/191 22/135/191 121/133/191
f 121/133/192 22/135/192 122/134/192
f 22/135/193 21/136/193 122/134/193
f 122/134/194 21/136/194 48/18/194
f 21/136/195 3/7/195 48/18/195
f 39/112/196 44/137/196 7/69/196
f 40/111/197 123/138/197 39/112/197
f 41/9/198 124/139/198 40/111/198
f 39/112/199 123/138/199 44/137/199
f 123/138/200 43/140/200 44/137/200
f 40/111/201 124/139/201 123/138/201
f 124/139/202 125/141/202 123/138/202
f 123/138/203 125/141/203 43/140/203
f 125/141/204 42/142/204 43/140/204
f 41/9/205 20/8/205 124/139/205
f 20/8/206 19/143/206 124/139/206
f 124/139/207 19/143/207 125/141/207
f 19/143/208 18/144/208 125/141/208
f 125/141/209 18/144/209 42/142/209
f 18/144/210 2/145/210 42/142/210
f 33/119/211 38/120/211 6/21/211
f 34/118/212 126/146/212 33/119/212
f 35/6/213 127/147/213 34/118/213
f 33/119/214 126/146/214 38/120/214
f 126/146/215 37/121/215 38/120/215
f 34/118/216 127/147/216 126/146/216
f 127/147/217 128/148/217 126/146/217
f 126/146/218 128/148/218 37/121/218
f 128/148/219 36/16/219 37/121/219
f 35/6/220 14/5/220 127/147/220
f 14/5/221 13/149/221 127/147/221
f 127/147/222 13/149/222 128/148/222
f 13/149/223 12/150/223 128/148/223
f 128/148/224 12/150/224 36/16/224
f 12/150/225 1/1/225 36/16/225
f 27/126/226 32/92/226 10/33/226
f 28/125/227 129/151/227 27/126/227
f 29/3/228 130/152/228 28/125/228
f 27/126/229 129/151/229 32/92/229
f 129/151/230 31/93/230 32/92/230
f 28/125/231 130/152/231 129/151/231
f 130/152/232 131/153/232 129/151/232
f 129/151/233 131/153/233 31/93/233
f 131/153/234 30/20/234 31/93/234
f 29/3/235 17/2/235 130/152/235
f 17/2/236 16/154/236 130/152/236
f 130/152/237 16/154/237 131/153/237
f 16/154/238 15/155/238 131/153/238
f 131/153/239 15/155/239 30/20/239
f 15/155/240 5/13/240 30/20/240
f 15/155/241 16/154/241 145/154/241 144/155/241
f 132/5/242 133/145/242 146/144/242 147/143/242 136/8/242 137/7/242 148/136/242 149/135/242 138/11/242 139/10/242 150/131/242 151/130/242 140/14/242 141/13/242 144/155/242 145/154/242 134/2/242 135/1/242 142/150/242 143/149/242
f 4/10/243 24/131/243 150/131/243 139/10/243
f 14/5/244 2/4/244 133/4/244 132/5/244
f 16/154/245 17/2/245 134/2/245 145/154/245
f 24/131/246 25/130/246 151/130/246 150/131/246
f 17/2/247 1/1/247 135/1/247 134/2/247
f 2/145/248 18/144/248 146/144/248 133/145/248
f 25/130/249 26/14/249 140/14/249 151/130/249
f 20/8/250 3/7/250 137/7/250 136/8/250
f 18/144/251 19/143/251 147/143/251 146/144/251
f 1/1/252 12/150/252 142/150/252 135/1/252
f 23/11/253 4/10/253 139/10/253 138/11/253
f 19/143/254 20/8/254 136/8/254 147/143/254
f 12/150/255 13/149/255 143/149/255 142/150/255
f 26/14/256 5/13/256 141/13/256 140/14/256
f 3/7/257 21/136/257 148/136/257 137/7/257
f 13/149/258 14/5/258 132/5/258 143/149/258
f 21/136/259 22/135/259 149/135/259 148/136/259
f 5/13/260 15/155/260 144/155/260 141/13/260
f 22/135/261 23/11/261 138/11/261 149/135/261
